<?xml version="1.0" encoding="UTF-8" standalone="no"?>
<svg
   height="512px"
   id="Layer_1"
   style="enable-background:new 0 0 512 512;"
   fill="white"
   version="1.1"
   viewBox="0 0 512 512"
   width="512px"
   xml:space="preserve"
   sodipodi:docname="moon.svg"
   inkscape:version="1.1 (c68e22c387, 2021-05-23)"
   xmlns:inkscape="http://www.inkscape.org/namespaces/inkscape"
   xmlns:sodipodi="http://sodipodi.sourceforge.net/DTD/sodipodi-0.dtd"
   xmlns="http://www.w3.org/2000/svg"
   xmlns:svg="http://www.w3.org/2000/svg"><defs
     id="defs11" /><sodipodi:namedview
     id="namedview9"
     pagecolor="#ffffff"
     bordercolor="#666666"
     borderopacity="1.0"
     inkscape:pageshadow="2"
     inkscape:pageopacity="0.0"
     inkscape:pagecheckerboard="0"
     showgrid="false"
     inkscape:zoom="1.6835938"
     inkscape:cx="255.70301"
     inkscape:cy="260.45475"
     inkscape:window-width="1920"
     inkscape:window-height="1051"
     inkscape:window-x="-9"
     inkscape:window-y="-9"
     inkscape:window-maximized="1"
     inkscape:current-layer="Layer_1" /><g
     id="g6"
     style="fill:#6b717e;fill-opacity:1"
     transform="scale(21.343387,21.491879)"><g
       id="g4"
       style="fill:#6b717e;fill-opacity:1"><path
         d="M 12,3 A 0.75,0.75 0 0 1 11.25,2.25 v -1.5 a 0.75,0.75 0 1 1 1.5,0 v 1.5 A 0.75,0.75 0 0 1 12,3 Z M 5.105,5.855 A 0.755,0.755 0 0 1 4.575,5.635 L 3.5,4.575 A 0.76013979,0.76013979 0 0 1 4.575,3.5 l 1.06,1.06 a 0.745,0.745 0 0 1 0,1.06 0.755,0.755 0 0 1 -0.53,0.235 z M 12,19.5 A 7.5,7.5 0 0 1 6.693,6.695 a 0.76,0.76 0 0 1 0.71,-0.2 0.745,0.745 0 0 1 0.535,0.5 16.1,16.1 0 0 0 9.116,9.085 0.75,0.75 0 0 1 0.25,1.225 7.454,7.454 0 0 1 -5.306,2.195 z M 7,8.67 A 6,6 0 0 0 15.364,17 17.56,17.56 0 0 1 7,8.67 Z m 11.33,6.41 A 0.791,0.791 0 0 1 18.07,15.035 0.755,0.755 0 0 1 17.626,14.07 5.934,5.934 0 0 0 18,12 6,6 0 0 0 12,6 C 11.293,6 10.592,6.128 9.93,6.375 A 0.75,0.75 0 0 1 8.99,5.357 0.76,0.76 0 0 1 9.41,4.965 7.5,7.5 0 0 1 19.035,14.59 0.76,0.76 0 0 1 18.33,15.08 Z M 2.25,12.75 h -1.5 a 0.75,0.75 0 1 1 0,-1.5 h 1.5 a 0.75,0.75 0 1 1 0,1.5 z m 1.796,7.955 A 0.755,0.755 0 0 1 3.5,20.5 a 0.745,0.745 0 0 1 0,-1.06 l 1.06,-1.06 a 0.75,0.75 0 1 1 1.06,1.06 L 4.576,20.5 a 0.755,0.755 0 0 1 -0.53,0.205 z M 12,24 a 0.75,0.75 0 0 1 -0.75,-0.75 v -1.5 a 0.75,0.75 0 1 1 1.5,0 v 1.5 A 0.75,0.75 0 0 1 12,24 Z m 7.955,-3.295 A 0.755,0.755 0 0 1 19.425,20.5 l -1.06,-1.06 a 0.75,0.75 0 0 1 1.06,-1.06 l 1.075,1.045 a 0.745,0.745 0 0 1 -0.252,1.232 0.757,0.757 0 0 1 -0.293,0.048 z M 23.25,12.75 h -1.5 a 0.75,0.75 0 1 1 0,-1.5 h 1.5 a 0.75,0.75 0 1 1 0,1.5 z M 18.896,5.855 a 0.755,0.755 0 0 1 -0.752,-0.75 0.745,0.745 0 0 1 0.222,-0.53 L 19.426,3.5 a 0.76013979,0.76013979 0 1 1 1.075,1.075 l -1.06,1.06 a 0.755,0.755 0 0 1 -0.545,0.22 z"
         id="path2"
         style="fill:#6b717e;fill-opacity:1" /></g></g></svg>
