<?xml version="1.0" encoding="UTF-8" standalone="no"?>
<svg
   height="512px"
   id="Layer_1"
   style="enable-background:new 0 0 512 512;"
   fill="white"
   version="1.1"
   viewBox="0 0 512 512"
   width="512px"
   xml:space="preserve"
   sodipodi:docname="moon.svg"
   inkscape:version="1.1 (c68e22c387, 2021-05-23)"
   xmlns:inkscape="http://www.inkscape.org/namespaces/inkscape"
   xmlns:sodipodi="http://sodipodi.sourceforge.net/DTD/sodipodi-0.dtd"
   xmlns="http://www.w3.org/2000/svg"
   xmlns:svg="http://www.w3.org/2000/svg"><defs
     id="defs11" /><sodipodi:namedview
     id="namedview9"
     pagecolor="#ffffff"
     bordercolor="#666666"
     borderopacity="1.0"
     inkscape:pageshadow="2"
     inkscape:pageopacity="0.0"
     inkscape:pagecheckerboard="0"
     showgrid="false"
     inkscape:zoom="1.6835938"
     inkscape:cx="255.70302"
     inkscape:cy="256.29698"
     inkscape:window-width="1920"
     inkscape:window-height="1051"
     inkscape:window-x="-9"
     inkscape:window-y="-9"
     inkscape:window-maximized="1"
     inkscape:current-layer="Layer_1" /><g
     id="g6"
     style="fill:#470aff;fill-opacity:1"><g
       id="g4"
       style="fill:#470aff;fill-opacity:1"><path
         d="M343.1,315c-1.8,0.1-3.5,0.1-5.3,0.1c-29.1,0-56.5-11.3-77.1-31.9c-20.6-20.6-31.9-48-31.9-77.1    c0-16.6,3.7-32.6,10.6-47.1c3.1-6.4,6.8-12.5,11.1-18.2c-7.6,0.8-14.9,2.4-22,4.6c-46.8,14.8-80.7,58.5-80.7,110.2    c0,63.8,51.7,115.5,115.5,115.5c35.3,0,66.8-15.8,88-40.7c4.8-5.7,9.2-11.9,12.8-18.5C357.3,313.6,350.3,314.7,343.1,315z"
         id="path2"
         style="fill:#470aff;fill-opacity:1" /></g></g></svg>
