<?xml version="1.0" encoding="UTF-8" standalone="no"?>
<svg
   viewBox="0 0 24 24"
   version="1.1"
   id="svg22"
   sodipodi:docname="sun.svg"
   inkscape:version="1.1 (c68e22c387, 2021-05-23)"
   xmlns:inkscape="http://www.inkscape.org/namespaces/inkscape"
   xmlns:sodipodi="http://sodipodi.sourceforge.net/DTD/sodipodi-0.dtd"
   xmlns="http://www.w3.org/2000/svg"
   xmlns:svg="http://www.w3.org/2000/svg">
  <defs
     id="defs26" />
  <sodipodi:namedview
     id="namedview24"
     pagecolor="#ffffff"
     bordercolor="#666666"
     borderopacity="1.0"
     inkscape:pageshadow="2"
     inkscape:pageopacity="0.0"
     inkscape:pagecheckerboard="0"
     showgrid="false"
     inkscape:zoom="35.916667"
     inkscape:cx="11.986079"
     inkscape:cy="12.013921"
     inkscape:window-width="1920"
     inkscape:window-height="1051"
     inkscape:window-x="-9"
     inkscape:window-y="-9"
     inkscape:window-maximized="1"
     inkscape:current-layer="svg22" />
  <title
     id="title2" />
  <circle
     cx="12"
     cy="12"
     fill="#464646"
     r="5"
     id="circle4"
     style="fill:#470aff;fill-opacity:1" />
  <path
     d="M21,13H20a1,1,0,0,1,0-2h1a1,1,0,0,1,0,2Z"
     fill="#464646"
     id="path6"
     style="fill:#470aff;fill-opacity:1" />
  <path
     d="M4,13H3a1,1,0,0,1,0-2H4a1,1,0,0,1,0,2Z"
     fill="#464646"
     id="path8"
     style="fill:#470aff;fill-opacity:1" />
  <path
     d="M17.66,7.34A1,1,0,0,1,17,7.05a1,1,0,0,1,0-1.41l.71-.71a1,1,0,1,1,1.41,1.41l-.71.71A1,1,0,0,1,17.66,7.34Z"
     fill="#464646"
     id="path10"
     style="fill:#470aff;fill-opacity:1" />
  <path
     d="M5.64,19.36a1,1,0,0,1-.71-.29,1,1,0,0,1,0-1.41L5.64,17a1,1,0,0,1,1.41,1.41l-.71.71A1,1,0,0,1,5.64,19.36Z"
     fill="#464646"
     id="path12"
     style="fill:#470aff;fill-opacity:1" />
  <path
     d="M12,5a1,1,0,0,1-1-1V3a1,1,0,0,1,2,0V4A1,1,0,0,1,12,5Z"
     fill="#464646"
     id="path14"
     style="fill:#470aff;fill-opacity:1" />
  <path
     d="M12,22a1,1,0,0,1-1-1V20a1,1,0,0,1,2,0v1A1,1,0,0,1,12,22Z"
     fill="#464646"
     id="path16"
     style="fill:#470aff;fill-opacity:1" />
  <path
     d="M6.34,7.34a1,1,0,0,1-.7-.29l-.71-.71A1,1,0,0,1,6.34,4.93l.71.71a1,1,0,0,1,0,1.41A1,1,0,0,1,6.34,7.34Z"
     fill="#464646"
     id="path18"
     style="fill:#470aff;fill-opacity:1" />
  <path
     d="M18.36,19.36a1,1,0,0,1-.7-.29L17,18.36A1,1,0,0,1,18.36,17l.71.71a1,1,0,0,1,0,1.41A1,1,0,0,1,18.36,19.36Z"
     fill="#464646"
     id="path20"
     style="fill:#470aff;fill-opacity:1" />
</svg>
